<svg width="512" height="512" viewBox="0 0 512 512" fill="none" xmlns="http://www.w3.org/2000/svg">
<path d="M176.665 122C188.414 119.08 207.165 118 207.165 118L282.165 122C282.165 122 313.408 127.681 333.665 134C344.05 137.24 350.181 138.67 359.665 144C369.608 149.589 374.048 152.998 382.665 162C394.928 174.811 403.165 191.5 407.165 202.5C411.165 213.5 416.165 227.5 415.165 241.5C414.165 255.5 415.165 256.5 408.665 284C402.165 311.5 393.665 326.5 386.165 341.5C378.665 356.5 367.665 384 334.165 424.5C300.665 465 309.665 457 284.165 479.5C258.665 502 267.665 495 252.165 503.5C242.239 508.943 238.165 512 226.165 512C214.638 512 203.115 508.347 195.165 500C185.165 489.5 179.77 481.079 172.165 470C156.867 447.714 146.243 429.657 135.165 405C119.665 370.5 116.824 355 111.665 342C99.1648 310.5 98.1648 280 98.1648 280C98.1648 280 94.0514 244.962 97.1648 224.5C98.7323 214.198 100.001 208.429 103.165 198.5C107.86 183.765 110.7 175.102 119.665 162.5C128.069 150.686 134.469 145.068 146.165 136.5C156.599 128.856 164.112 125.119 176.665 122Z" fill="#EC433E"/>
<path d="M149.529 344.052C148.964 337.512 151.467 329.732 158.029 329.552C164.473 329.375 167.644 336.606 167.529 343.052C167.416 349.339 164.301 356.493 158.029 356.052C152.3 355.649 150.022 349.773 149.529 344.052Z" fill="#CB2927"/>
<path d="M123.029 255.552C122.75 249.356 124.445 242.759 130.529 241.552C137.469 240.175 141.779 248.481 142.029 255.552C142.254 261.944 139.894 268.927 133.529 269.552C126.727 270.22 123.336 262.379 123.029 255.552Z" fill="#CB2927"/>
<path d="M159.529 189.052C160.933 181.729 165.853 173.526 173.029 175.552C179.519 177.384 180.672 184.905 179.529 191.552C178.217 199.177 172.254 207.818 165.029 205.052C158.858 202.689 158.284 195.541 159.529 189.052Z" fill="#CB2927"/>
<path d="M247.029 183.552C248.607 176.542 252.382 169.316 259.529 170.052C267.464 170.869 269.64 181.514 267.029 189.052C264.582 196.114 257.669 202.981 251.029 199.552C245.306 196.597 245.614 189.835 247.029 183.552Z" fill="#CB2927"/>
<path d="M340.029 209.052C338.642 201.582 340.951 192.109 348.529 191.552C356.091 190.996 360.053 199.987 359.529 207.552C359.075 214.097 356.083 221.345 349.529 221.052C343.558 220.785 341.12 214.928 340.029 209.052Z" fill="#CB2927"/>
<path d="M359.529 281.552C360.525 275.534 363.435 269.267 369.529 269.552C376.246 269.866 378.43 278.475 377.029 285.052C375.704 291.27 371.158 297.741 365.029 296.052C359.19 294.443 358.54 287.527 359.529 281.552Z" fill="#CB2927"/>
<path d="M312.529 356.052C314.869 349.796 319.767 343.228 326.029 345.552C332.501 347.954 331.251 356.708 328.529 363.052C326.063 368.797 322.036 374.783 316.029 373.052C309.516 371.175 310.154 362.4 312.529 356.052Z" fill="#CB2927"/>
<path d="M260.029 415.552C260.383 408.727 263.695 401.525 270.529 401.552C278.041 401.582 281.102 411.207 279.529 418.552C278.199 424.762 274.328 430.866 268.029 430.052C261.615 429.223 259.694 422.01 260.029 415.552Z" fill="#CB2927"/>
<path d="M216.529 471.552C216.738 464.948 219.427 457.283 226.029 457.552C232.924 457.833 234.114 466.676 233.529 473.552C233.031 479.392 231.816 485.627 226.029 486.552C219.182 487.646 216.309 478.482 216.529 471.552Z" fill="#CB2927"/>
<path d="M185.029 412.052C184.8 404.744 188.219 396.388 195.529 396.552C202.73 396.714 205.75 404.852 205.529 412.052C205.317 418.927 202.406 426.394 195.529 426.552C188.539 426.713 185.248 419.04 185.029 412.052Z" fill="#CB2927"/>
<path d="M265.029 319.052C269.029 315.909 273.227 317.725 275.529 320.052C277.7 322.247 277.169 323.468 277.029 326.552C276.756 332.552 270.168 336.802 264.029 340.052C255.529 344.552 256.529 345.552 244.029 345.552C239.008 345.552 228.782 346 219.529 337.552C208.029 327.052 210.029 330.052 206.029 321.052C204.664 317.982 206.299 312.475 209.529 311.552C213.029 310.552 216.859 310.32 218.529 313.052C224.029 322.052 230.568 329.44 243.029 329.552C253.423 329.645 258.029 324.552 265.029 319.052Z" fill="black"/>
<path d="M174.529 255.552C178.396 242.89 188.478 232.826 201.529 235.052C215.819 237.489 221.852 253.941 218.529 268.052C215.27 281.889 203.354 293.36 189.529 290.052C175.241 286.633 170.237 269.602 174.529 255.552Z" fill="black"/>
<path d="M279.029 275.552C279.388 260.506 291.142 245.841 306.029 248.052C319.164 250.003 326.309 262.276 326.029 275.552C325.709 290.736 313.501 305.6 298.529 303.052C285.55 300.843 278.714 288.713 279.029 275.552Z" fill="black"/>
<path d="M302.436 265.052C301.559 260.31 304.085 256.394 308.907 256.5C312.912 256.588 315.156 258.122 315.936 262.052C316.819 266.507 315.371 269.666 310.907 270.5C306.555 271.313 303.241 269.405 302.436 265.052Z" fill="white"/>
<path d="M195.529 252.552C195.402 248.803 197.888 245.954 201.529 245.052C205.69 244.021 210.036 246.381 211.029 250.552C212.212 255.524 206.502 260.727 201.529 259.552C198.025 258.724 195.651 256.15 195.529 252.552Z" fill="white"/>
<path d="M196 109.5C209.5 131.5 240 139 240 139C240 139 239.3 146 238 152.5C237.5 155 239.54 156.053 242 156.5C247.5 157.5 250 158.5 259.5 159.5C261.017 159.66 261.669 157.989 262 156.5C263 152 263 146 263 146L278 148.5C278 148.5 277 156 276.5 159.5C276.216 161.49 278.505 162.251 280.5 162.5C284.5 163 286.5 163.5 295 165C296.904 165.336 299.595 164.39 300 162.5C301.5 155.5 302.5 148.5 302.5 148.5C302.5 148.5 330.832 149.299 344 141C354.99 134.074 363.264 127.436 371 117C381.17 103.28 387.342 89.4978 389 72.5C391 52 389.193 47.4637 387.5 39C386.5 34 377.5 18.5 365.5 18.5C353.5 18.5 349.5 32 349.5 40.9999C349.5 47.0207 350.912 53.1336 350.5 59.9999C349.857 70.7254 347.12 76.842 341.5 86C328 108 315.5 104 315.5 104C315.5 104 316 74.5 316 58.9999C316 56.5533 318 42.4999 307.5 39.4999C297 36.4999 292.556 48.9623 292 50.9999C284.5 78.4999 278 99 278 99V45.9999C278 43.9999 277.5 35 268.5 33C259.5 31 255.458 37.2692 255 39.4999C251 58.9999 240 96 240 96C240 96 230.29 93.2598 226 86C219.5 75 219.483 70.5836 219 58.4999C218.5 45.9999 223.5 33.4999 224.5 26.9999C225.5 20.5 222.642 8.31296 213.5 5.49995C201.5 1.80764 191.071 12.5 188.5 18.5C182.06 33.526 177.24 46.6417 180 65.5C183 86 182.5 87.5 196 109.5Z" fill="#20894E"/>
</svg>
